#!OML:ASF G:\JayActor3\Patient Classification 1\Patient 1\Session 6\male.ASF
:FULLY-SPECIFIED
:DEGREES
3137
root -0.760399 15.206 -3.26009 1103.79 -82.7965 -1095.98
lowerback 32.8679 1.45035 5.263
upperback 16.6438 1.31592 -1.28973
thorax 1.54161 0.355314 -4.50882
lowerneck 8.43494 13.8454 8.50543
upperneck -28.4818 16.0428 -21.9219
head -7.28513 9.18425 -9.94258
rclavicle 6.32135e-014 -2.22639e-014
rhumerus -18.821 -9.09199 -84.5429
rradius 62.2202
rwrist -2.91006
rhand -24.3595 -5.59178
rfingers 7.12502
rthumb 2.13018 -35.5609
lclavicle 6.32135e-014 -2.22639e-014
lhumerus -12.2324 -14.0546 76.476
lradius 64.8964
lwrist 27.9796
lhand -19.5857 7.97842
lfingers 7.12502
lthumb 6.73976 37.8512
rfemur -47.4818 -13.2259 26.2367
rtibia 63.9493
rfoot -26.6507 -17.0407
rtoes -0.99909
lfemur -46.4706 10.7225 -18.6964
ltibia 56.827
lfoot -17.3459 2.44361
ltoes -2.36275
3138
root -0.757968 15.2076 -3.25641 1104.03 -82.7929 -1096.2
lowerback 32.8737 1.45008 5.25442
upperback 16.6626 1.30912 -1.30341
thorax 1.55922 0.351806 -4.51692
lowerneck 8.45285 13.865 8.50537
upperneck -28.4723 16.0805 -21.9002
head -7.2817 9.20146 -9.93541
rclavicle -4.01545e-014 2.55438e-014
rhumerus -18.8305 -9.07903 -84.5792
rradius 62.3164
rwrist -2.89034
rhand -24.3779 -5.57832
rfingers 7.12502
rthumb 2.11238 -35.5476
lclavicle -4.01545e-014 2.55438e-014
lhumerus -12.1726 -14.086 76.4368
lradius 64.9419
lwrist 27.9883
lhand -19.5936 7.95803
lfingers 7.12502
lthumb 6.73214 37.831
rfemur -47.4922 -13.2778 26.2652
rtibia 63.9176
rfoot -26.6194 -16.9871
rtoes -0.982319
lfemur -46.4872 10.7423 -18.6908
ltibia 56.8104
lfoot -17.3409 2.42978
ltoes -2.32841
3139
root -0.755692 15.2091 -3.2516 1104.27 -82.7955 -1096.42
lowerback 32.8704 1.45366 5.24138
upperback 16.6769 1.30649 -1.31897
thorax 1.57536 0.350393 -4.52574
lowerneck 8.46792 13.8827 8.49819
upperneck -28.467 16.1136 -21.8766
head -7.28091 9.21673 -9.927
rclavicle -1.0138e-014 -3.27995e-015
rhumerus -18.8539 -9.05964 -84.6127
rradius 62.4029
rwrist -2.86767
rhand -24.3811 -5.57273
rfingers 7.12502
rthumb 2.10929 -35.542
lclavicle -1.0138e-014 -3.27995e-015
lhumerus -12.1188 -14.1167 76.4101
lradius 64.966
lwrist 27.9938
lhand -19.5927 7.93732
lfingers 7.12502
lthumb 6.73306 37.8103
rfemur -47.5155 -13.3238 26.2889
rtibia 63.8907
rfoot -26.5845 -16.934
rtoes -0.979124
lfemur -46.5147 10.7631 -18.6926
ltibia 56.7971
lfoot -17.3364 2.41935
ltoes -2.30509
3140
root -0.753496 15.2104 -3.24569 1104.53 -82.8031 -1096.65
lowerback 32.8643 1.46058 5.22383
upperback 16.6871 1.30736 -1.33472
thorax 1.58817 0.350463 -4.53332
lowerneck 8.48116 13.8994 8.48574
upperneck -28.468 16.1425 -21.8562
head -7.28273 9.23065 -9.91953
rclavicle 6.65929e-015 4.40308e-014
rhumerus -18.89 -9.03372 -84.6414
rradius 62.4785
rwrist -2.83894
rhand -24.3774 -5.55386
rfingers 7.12502
rthumb 2.11288 -35.5231
lclavicle 6.65929e-015 4.40308e-014
lhumerus -12.073 -14.1451 76.3962
lradius 64.9733
lwrist 27.9978
lhand -19.5896 7.91736
lfingers 7.12502
lthumb 6.73604 37.7902
rfemur -47.5466 -13.3615 26.3082
rtibia 63.8684
rfoot -26.546 -16.8853
rtoes -0.993368
lfemur -46.5491 10.784 -18.699
ltibia 56.7889
lfoot -17.3332 2.41319
ltoes -2.29527
3141
root -0.75139 15.2114 -3.23864 1104.79 -82.8136 -1096.87
lowerback 32.8562 1.46926 5.20104
upperback 16.6933 1.30962 -1.35054
thorax 1.5973 0.350908 -4.53856
lowerneck 8.49057 13.9159 8.47198
upperneck -28.473 16.1684 -21.8435
head -7.28485 9.24391 -9.9145
rclavicle 3.94588e-014 7.25564e-015
rhumerus -18.9357 -8.99901 -84.6642
rradius 62.5426
rwrist -2.8077
rhand -24.3708 -5.51483
rfingers 7.12502
rthumb 2.11923 -35.4841
lclavicle 3.94588e-014 7.25564e-015
lhumerus -12.0351 -14.171 76.3929
lradius 64.9665
lwrist 27.9994
lhand -19.5877 7.92121
lfingers 7.12502
lthumb 6.73782 37.794
rfemur -47.5854 -13.3937 26.3217
rtibia 63.8509
rfoot -26.5046 -16.8418
rtoes -1.01996
lfemur -46.5914 10.8012 -18.7116
ltibia 56.7865
lfoot -17.3327 2.41352
ltoes -2.29975
3142
root -0.749387 15.2122 -3.23054 1105.07 -82.8272 -1097.13
lowerback 32.8502 1.47978 5.17355
upperback 16.6959 1.31348 -1.36407
thorax 1.60152 0.351567 -4.53932
lowerneck 8.49593 13.934 8.45198
upperneck -28.4823 16.193 -21.8373
head -7.28775 9.25775 -9.91082
rclavicle -4.52235e-014 2.98177e-014
rhumerus -18.9893 -8.95153 -84.6788
rradius 62.5959
rwrist -2.77406
rhand -24.3569 -5.46047
rfingers 7.12502
rthumb 2.1327 -35.4296
lclavicle -4.52235e-014 2.98177e-014
lhumerus -12.0114 -14.1913 76.4015
lradius 64.9556
lwrist 27.9967
lhand -19.5808 7.9377
lfingers 7.12502
lthumb 6.74453 37.8103
rfemur -47.6267 -13.4152 26.3317
rtibia 63.8366
rfoot -26.4648 -16.8028
rtoes -1.04412
lfemur -46.6377 10.816 -18.7252
ltibia 56.7904
lfoot -17.3371 2.42035
ltoes -2.29983
3143
root -0.747589 15.2128 -3.22141 1105.37 -82.843 -1097.38
lowerback 32.8494 1.49166 5.13876
upperback 16.696 1.31749 -1.37498
thorax 1.6008 0.351449 -4.53348
lowerneck 8.49617 13.9552 8.42762
upperneck -28.4932 16.2184 -21.8405
head -7.28944 9.27331 -9.90916
rclavicle 7.95139e-016 -2.33075e-014
rhumerus -19.0483 -8.89173 -84.6862
rradius 62.6393
rwrist -2.73859
rhand -24.3186 -5.40087
rfingers 7.12502
rthumb 2.1697 -35.3696
lclavicle 7.95139e-016 -2.33075e-014
lhumerus -12.0039 -14.2059 76.4205
lradius 64.9441
lwrist 27.9889
lhand -19.5684 7.97164
lfingers 7.12502
lthumb 6.75644 37.8438
rfemur -47.6646 -13.4306 26.3351
rtibia 63.8248
rfoot -26.424 -16.7701
rtoes -1.07902
lfemur -46.6817 10.8269 -18.7418
ltibia 56.7998
lfoot -17.3471 2.43433
ltoes -2.28683
3144
root -0.745943 15.2131 -3.21168 1105.74 -82.856 -1097.73
lowerback 32.8531 1.50528 5.10517
upperback 16.6929 1.32456 -1.38101
thorax 1.59531 0.352462 -4.52397
lowerneck 8.49097 13.9784 8.40213
upperneck -28.5032 16.2447 -21.8508
head -7.28898 9.29009 -9.90886
rclavicle -4.28381e-014 1.48592e-014
rhumerus -19.1118 -8.82395 -84.6889
rradius 62.6737
rwrist -2.70822
rhand -24.2564 -5.34815
rfingers 7.12502
rthumb 2.22976 -35.3162
lclavicle -4.28381e-014 1.48592e-014
lhumerus -12.0135 -14.2211 76.4472
lradius 64.9369
lwrist 27.9753
lhand -19.5496 8.00122
lfingers 7.12502
lthumb 6.77464 37.8728
rfemur -47.6988 -13.4341 26.3462
rtibia 63.8129
rfoot -26.3868 -16.747
rtoes -1.11537
lfemur -46.7277 10.8373 -18.7477
ltibia 56.8163
lfoot -17.3605 2.45255
ltoes -2.26452
3145
root -0.744454 15.2131 -3.20101 1106.17 -82.8656 -1098.13
lowerback 32.8591 1.51778 5.0749
upperback 16.6871 1.33164 -1.38505
thorax 1.58623 0.353515 -4.51411
lowerneck 8.48338 14.0039 8.37413
upperneck -28.514 16.2727 -21.8645
head -7.2879 9.30826 -9.90912
rclavicle 1.68967e-014 4.05521e-014
rhumerus -19.1765 -8.75113 -84.688
rradius 62.6981
rwrist -2.68214
rhand -24.177 -5.31522
rfingers 7.12502
rthumb 2.30637 -35.2825
lclavicle 1.68967e-014 4.05521e-014
lhumerus -12.0368 -14.2381 76.4783
lradius 64.9314
lwrist 27.9553
lhand -19.5172 8.01933
lfingers 7.12502
lthumb 6.80588 37.8899
rfemur -47.7311 -13.4351 26.3594
rtibia 63.802
rfoot -26.3495 -16.7291
rtoes -1.16303
lfemur -46.7755 10.8419 -18.7493
ltibia 56.8401
lfoot -17.3795 2.47408
ltoes -2.21843
3146
root -0.743253 15.2129 -3.18963 1106.69 -82.8675 -1098.63
lowerback 32.8659 1.52915 5.05748
upperback 16.6802 1.34109 -1.38639
thorax 1.57631 0.356432 -4.50886
lowerneck 8.47311 14.0292 8.34949
upperneck -28.5224 16.3004 -21.8806
head -7.28498 9.3262 -9.91002
rclavicle -2.05742e-014 -4.47266e-016
rhumerus -19.2414 -8.68193 -84.6864
rradius 62.7099
rwrist -2.66062
rhand -24.0912 -5.29731
rfingers 7.12502
rthumb 2.38925 -35.2637
lclavicle -2.05742e-014 -4.47266e-016
lhumerus -12.072 -14.2642 76.5101
lradius 64.928
lwrist 27.9311
lhand -19.4758 8.00531
lfingers 7.12502
lthumb 6.84586 37.8746
rfemur -47.7575 -13.4325 26.3836
rtibia 63.7913
rfoot -26.3146 -16.717
rtoes -1.22414
lfemur -46.824 10.8441 -18.7364
ltibia 56.8727
lfoot -17.4034 2.49295
ltoes -2.15125
3147
root -0.742075 15.2121 -3.17739 1107.28 -82.8661 -1099.19
lowerback 32.8702 1.54035 5.0481
upperback 16.671 1.35288 -1.38747
thorax 1.56548 0.361117 -4.50822
lowerneck 8.46243 14.0527 8.32815
upperneck -28.5278 16.3263 -21.8969
head -7.28087 9.34296 -9.91106
rclavicle 1.32192e-014 -3.36443e-014
rhumerus -19.3035 -8.61482 -84.6837
rradius 62.7081
rwrist -2.65015
rhand -24.0075 -5.29834
rfingers 7.12502
rthumb 2.47013 -35.2638
lclavicle 1.32192e-014 -3.36443e-014
lhumerus -12.1161 -14.3002 76.5412
lradius 64.9297
lwrist 27.9052
lhand -19.4314 7.97954
lfingers 7.12502
lthumb 6.8887 37.8475
rfemur -47.7888 -13.4279 26.4131
rtibia 63.7853
rfoot -26.2785 -16.7072
rtoes -1.2905
lfemur -46.881 10.8431 -18.7181
ltibia 56.9155
lfoot -17.4303 2.514
ltoes -2.08177
